<mxfile host="Electron" agent="Mozilla/5.0 (Macintosh; Intel Mac OS X 10_15_7) AppleWebKit/537.36 (KHTML, like Gecko) draw.io/26.2.15 Chrome/134.0.6998.205 Electron/35.2.1 Safari/537.36" version="26.2.15">
  <diagram name="Page-1" id="Ly_8Hta-DNM55bEB_7cO">
    <mxGraphModel dx="1018" dy="777" grid="1" gridSize="10" guides="1" tooltips="1" connect="1" arrows="1" fold="1" page="1" pageScale="1" pageWidth="850" pageHeight="1100" math="0" shadow="0">
      <root>
        <mxCell id="0" />
        <mxCell id="1" parent="0" />
        <mxCell id="GUvVln1f6sLd33s2nnQJ-36" style="edgeStyle=orthogonalEdgeStyle;rounded=0;orthogonalLoop=1;jettySize=auto;html=1;entryX=0.5;entryY=0;entryDx=0;entryDy=0;endArrow=none;startFill=1;startArrow=classic;endSize=12;startSize=14;" parent="1" source="GUvVln1f6sLd33s2nnQJ-24" target="GUvVln1f6sLd33s2nnQJ-32" edge="1">
          <mxGeometry relative="1" as="geometry" />
        </mxCell>
        <mxCell id="GUvVln1f6sLd33s2nnQJ-24" value="Hangout Scheduler App" style="swimlane;fontStyle=0;childLayout=stackLayout;horizontal=1;startSize=26;fillColor=none;horizontalStack=0;resizeParent=1;resizeParentMax=0;resizeLast=0;collapsible=1;marginBottom=0;whiteSpace=wrap;html=1;" parent="1" vertex="1">
          <mxGeometry x="360" y="330" width="140" height="52" as="geometry" />
        </mxCell>
        <mxCell id="GUvVln1f6sLd33s2nnQJ-38" style="edgeStyle=orthogonalEdgeStyle;rounded=0;orthogonalLoop=1;jettySize=auto;html=1;entryX=0.5;entryY=1;entryDx=0;entryDy=0;endArrow=none;startFill=1;endFill=1;startArrow=classic;startSize=14;" parent="1" source="GUvVln1f6sLd33s2nnQJ-28" target="GUvVln1f6sLd33s2nnQJ-32" edge="1">
          <mxGeometry relative="1" as="geometry" />
        </mxCell>
        <mxCell id="GUvVln1f6sLd33s2nnQJ-28" value="Hangout" style="swimlane;fontStyle=0;childLayout=stackLayout;horizontal=1;startSize=26;fillColor=none;horizontalStack=0;resizeParent=1;resizeParentMax=0;resizeLast=0;collapsible=1;marginBottom=0;whiteSpace=wrap;html=1;" parent="1" vertex="1">
          <mxGeometry x="355" y="480" width="140" height="52" as="geometry" />
        </mxCell>
        <mxCell id="GUvVln1f6sLd33s2nnQJ-32" value="User" style="swimlane;fontStyle=0;childLayout=stackLayout;horizontal=1;startSize=26;fillColor=none;horizontalStack=0;resizeParent=1;resizeParentMax=0;resizeLast=0;collapsible=1;marginBottom=0;whiteSpace=wrap;html=1;" parent="1" vertex="1">
          <mxGeometry x="670" y="400" width="140" height="52" as="geometry" />
        </mxCell>
        <mxCell id="GUvVln1f6sLd33s2nnQJ-37" value="View/Interact With Hangouts On" style="text;html=1;align=center;verticalAlign=middle;resizable=0;points=[];autosize=1;strokeColor=none;fillColor=none;" parent="1" vertex="1">
          <mxGeometry x="530" y="330" width="190" height="30" as="geometry" />
        </mxCell>
        <mxCell id="GUvVln1f6sLd33s2nnQJ-39" value="1" style="text;html=1;align=center;verticalAlign=middle;resizable=0;points=[];autosize=1;strokeColor=none;fillColor=none;" parent="1" vertex="1">
          <mxGeometry x="495" y="360" width="30" height="30" as="geometry" />
        </mxCell>
        <mxCell id="GUvVln1f6sLd33s2nnQJ-40" value="*" style="text;html=1;align=center;verticalAlign=middle;resizable=0;points=[];autosize=1;strokeColor=none;fillColor=none;" parent="1" vertex="1">
          <mxGeometry x="710" y="382" width="30" height="30" as="geometry" />
        </mxCell>
        <mxCell id="GUvVln1f6sLd33s2nnQJ-41" value="*" style="text;html=1;align=center;verticalAlign=middle;resizable=0;points=[];autosize=1;strokeColor=none;fillColor=none;" parent="1" vertex="1">
          <mxGeometry x="490" y="480" width="30" height="30" as="geometry" />
        </mxCell>
        <mxCell id="GUvVln1f6sLd33s2nnQJ-42" value="*" style="text;html=1;align=center;verticalAlign=middle;resizable=0;points=[];autosize=1;strokeColor=none;fillColor=none;" parent="1" vertex="1">
          <mxGeometry x="710" y="452" width="30" height="30" as="geometry" />
        </mxCell>
        <mxCell id="GUvVln1f6sLd33s2nnQJ-43" value="Create/View/Edit" style="text;html=1;align=center;verticalAlign=middle;resizable=0;points=[];autosize=1;strokeColor=none;fillColor=none;" parent="1" vertex="1">
          <mxGeometry x="570" y="502" width="110" height="30" as="geometry" />
        </mxCell>
        <mxCell id="GUvVln1f6sLd33s2nnQJ-45" value="Stored&lt;div&gt;On&lt;/div&gt;" style="text;html=1;align=center;verticalAlign=middle;resizable=0;points=[];autosize=1;strokeColor=none;fillColor=none;" parent="1" vertex="1">
          <mxGeometry x="365" y="420" width="60" height="40" as="geometry" />
        </mxCell>
        <mxCell id="GUvVln1f6sLd33s2nnQJ-46" value="1" style="text;html=1;align=center;verticalAlign=middle;resizable=0;points=[];autosize=1;strokeColor=none;fillColor=none;" parent="1" vertex="1">
          <mxGeometry x="425" y="382" width="30" height="30" as="geometry" />
        </mxCell>
        <mxCell id="GUvVln1f6sLd33s2nnQJ-47" style="edgeStyle=orthogonalEdgeStyle;rounded=0;orthogonalLoop=1;jettySize=auto;html=1;entryX=0.032;entryY=0.038;entryDx=0;entryDy=0;entryPerimeter=0;endSize=14;" parent="1" source="GUvVln1f6sLd33s2nnQJ-28" target="GUvVln1f6sLd33s2nnQJ-46" edge="1">
          <mxGeometry relative="1" as="geometry">
            <Array as="points">
              <mxPoint x="425" y="383" />
            </Array>
          </mxGeometry>
        </mxCell>
        <mxCell id="GUvVln1f6sLd33s2nnQJ-48" value="*" style="text;html=1;align=center;verticalAlign=middle;resizable=0;points=[];autosize=1;strokeColor=none;fillColor=none;" parent="1" vertex="1">
          <mxGeometry x="425" y="460" width="30" height="30" as="geometry" />
        </mxCell>
      </root>
    </mxGraphModel>
  </diagram>
</mxfile>
